<svg height="512" viewBox="0 0 64 64" width="512" xmlns="http://www.w3.org/2000/svg"><g id="Icons"><g><g><g><path d="m24 4h4c5.523 0 10 4.477 10 10v20h-24v-20c0-5.523 4.477-10 10-10z" fill="#c80a50"/></g><g><path d="m14 34h24v26h-24z" fill="#00a0c8"/></g><g><g><path d="m14 34c-3.314 0-6 2.686-6 6v8h6z" fill="#0082aa"/></g><g><path d="m8 48h6v12h-6z" fill="#f0c8a0"/></g></g><g><g><path d="m38 34c3.314 0 6 2.686 6 6v8h-6z" fill="#0082aa"/></g><g><path d="m38 48h6v12h-6z" fill="#f0c8a0"/></g></g><g><path d="m34 34c0 4.418-3.582 8-8 8-4.418 0-8-3.582-8-8z" fill="#0a5078"/></g><g><path d="m30 34v-6h-8v6h-2c0 3.314 2.686 6 6 6s6-2.686 6-6z" fill="#d2aa82"/></g><g><path d="m24.333 32h3.333c4.603 0 8.334-3.731 8.334-8.333v-5.667c0-3.314-2.686-6-6-6h-2c0 3.314-2.686 6-6 6h-6v5.667c0 4.602 3.731 8.333 8.333 8.333z" fill="#f0c8a0"/></g><g><path d="m36 24v-6c1.105 0 2 .895 2 2v2c0 1.105-.895 2-2 2z" fill="#d2aa82"/></g><g><path d="m18 40v-24h-4v20c0 2.209 1.791 4 4 4z" fill="#c80a50"/></g><g><path d="m8 48h6v1h-6z" fill="#d2aa82"/></g><g><path d="m38 48h6v1h-6z" fill="#d2aa82"/></g></g><path d="m33 17.5h-4c-.827 0-1.5.673-1.5 1.5v.5h-3v-.5c0-.827-.673-1.5-1.5-1.5h-4c-.827 0-1.5.673-1.5 1.5v2c0 .827.673 1.5 1.5 1.5h4c.827 0 1.5-.673 1.5-1.5v-.5h3v.5c0 .827.673 1.5 1.5 1.5h4c.827 0 1.5-.673 1.5-1.5v-2c0-.827-.673-1.5-1.5-1.5zm-9.5 3.5c0 .276-.225.5-.5.5h-4c-.275 0-.5-.224-.5-.5v-2c0-.276.225-.5.5-.5h4c.275 0 .5.224.5.5zm10 0c0 .276-.225.5-.5.5h-4c-.275 0-.5-.224-.5-.5v-2c0-.276.225-.5.5-.5h4c.275 0 .5.224.5.5z" fill="#00a0c8"/><g><path d="m44 48v6.86c-2.21-.32-4.25-1.15-6-2.38v-4.48z" fill="#d2aa82"/></g><g><path d="m38 34v18.48c-3.63-2.52-6-6.73-6-11.48 0-2.55.68-4.94 1.88-7z" fill="#0082aa"/></g><g><circle cx="46" cy="40" fill="#fab400" r="14"/></g><g><path d="m55 49h-18c-.552 0-1-.448-1-1v-13h20v13c0 .552-.448 1-1 1z" fill="#dc9600"/></g><g><path d="m55 48h-18c-.552 0-1-.448-1-1v-13h20v13c0 .552-.448 1-1 1z" fill="#0a5078"/></g><g><path d="m55 32h-18c-.552 0-1 .448-1 1v1h20v-1c0-.552-.448-1-1-1z" fill="#00a0c8"/></g><g><path d="m37 48h3v-14h-4v13c0 .552.448 1 1 1z" fill="#00325a"/></g><g><g><path d="m47 38h-4c-.552 0-1-.448-1-1 0-.552.448-1 1-1h4c.552 0 1 .448 1 1 0 .552-.448 1-1 1z" fill="#fab400"/></g><g><path d="m53 46h-10c-.552 0-1-.448-1-1 0-.552.448-1 1-1h10c.552 0 1 .448 1 1 0 .552-.448 1-1 1z" fill="#00325a"/></g><g><path d="m45 42h-2c-.552 0-1-.448-1-1 0-.552.448-1 1-1h2c.552 0 1 .448 1 1 0 .552-.448 1-1 1z" fill="#c80a50"/></g><g><path d="m53 42h-4c-.552 0-1-.448-1-1 0-.552.448-1 1-1h4c.552 0 1 .448 1 1 0 .552-.448 1-1 1z" fill="#00a0c8"/></g></g></g></g></svg>